<?xml version="1.0" encoding="utf-8" standalone="no"?>
<!DOCTYPE svg PUBLIC "-//W3C//DTD SVG 1.1//EN"
  "http://www.w3.org/Graphics/SVG/1.1/DTD/svg11.dtd">
<svg height="916.56pt" version="1.1" viewBox="0 0 1482.48 916.56" width="1482.48pt" xmlns="http://www.w3.org/2000/svg" xmlns:xlink="http://www.w3.org/1999/xlink">
 <metadata>
  <rdf:RDF xmlns:cc="http://creativecommons.org/ns#" xmlns:dc="http://purl.org/dc/elements/1.1/" xmlns:rdf="http://www.w3.org/1999/02/22-rdf-syntax-ns#">
   <cc:Work>
    <dc:type rdf:resource="http://purl.org/dc/dcmitype/StillImage"/>
    <dc:date>2021-11-09T16:48:21.024417</dc:date>
    <dc:format>image/svg+xml</dc:format>
    <dc:creator>
     <cc:Agent>
      <dc:title>Matplotlib v3.4.3, https://matplotlib.org/</dc:title>
     </cc:Agent>
    </dc:creator>
   </cc:Work>
  </rdf:RDF>
 </metadata>
 <defs>
  <style type="text/css">*{stroke-linecap:butt;stroke-linejoin:round;}</style>
 </defs>
 <g id="figure_1">
  <g id="patch_1">
   <path d="M 0 916.56 
L 1482.48 916.56 
L 1482.48 0 
L 0 0 
z
" style="fill:#ffffff;"/>
  </g>
  <g id="axes_1">
   <g id="patch_2">
    <path d="M 186.656077 815.631296 
L 1334.232 815.631296 
L 1334.232 109.9872 
L 186.656077 109.9872 
z
" style="fill:#ffffff;"/>
   </g>
   <g id="matplotlib.axis_1">
    <g id="xtick_1">
     <g id="line2d_1">
      <path clip-path="url(#p999adf8dc7)" d="M 238.818619 815.631296 
L 238.818619 109.9872 
" style="fill:none;stroke:#b0b0b0;stroke-linecap:square;stroke-width:0.8;"/>
     </g>
     <g id="line2d_2">
      <defs>
       <path d="M 0 0 
L 0 3.5 
" id="m9250283ef7" style="stroke:#000000;stroke-width:0.8;"/>
      </defs>
      <g>
       <use style="stroke:#000000;stroke-width:0.8;" x="238.818619" xlink:href="#m9250283ef7" y="815.631296"/>
      </g>
     </g>
     <g id="text_1">
      <!-- 0 -->
      <g transform="translate(235.637369 830.229733)scale(0.1 -0.1)">
       <defs>
        <path d="M 2034 4250 
Q 1547 4250 1301 3770 
Q 1056 3291 1056 2328 
Q 1056 1369 1301 889 
Q 1547 409 2034 409 
Q 2525 409 2770 889 
Q 3016 1369 3016 2328 
Q 3016 3291 2770 3770 
Q 2525 4250 2034 4250 
z
M 2034 4750 
Q 2819 4750 3233 4129 
Q 3647 3509 3647 2328 
Q 3647 1150 3233 529 
Q 2819 -91 2034 -91 
Q 1250 -91 836 529 
Q 422 1150 422 2328 
Q 422 3509 836 4129 
Q 1250 4750 2034 4750 
z
" id="DejaVuSans-30" transform="scale(0.015625)"/>
       </defs>
       <use xlink:href="#DejaVuSans-30"/>
      </g>
     </g>
    </g>
    <g id="xtick_2">
     <g id="line2d_3">
      <path clip-path="url(#p999adf8dc7)" d="M 447.677646 815.631296 
L 447.677646 109.9872 
" style="fill:none;stroke:#b0b0b0;stroke-linecap:square;stroke-width:0.8;"/>
     </g>
     <g id="line2d_4">
      <g>
       <use style="stroke:#000000;stroke-width:0.8;" x="447.677646" xlink:href="#m9250283ef7" y="815.631296"/>
      </g>
     </g>
     <g id="text_2">
      <!-- 200 -->
      <g transform="translate(438.133896 830.229733)scale(0.1 -0.1)">
       <defs>
        <path d="M 1228 531 
L 3431 531 
L 3431 0 
L 469 0 
L 469 531 
Q 828 903 1448 1529 
Q 2069 2156 2228 2338 
Q 2531 2678 2651 2914 
Q 2772 3150 2772 3378 
Q 2772 3750 2511 3984 
Q 2250 4219 1831 4219 
Q 1534 4219 1204 4116 
Q 875 4013 500 3803 
L 500 4441 
Q 881 4594 1212 4672 
Q 1544 4750 1819 4750 
Q 2544 4750 2975 4387 
Q 3406 4025 3406 3419 
Q 3406 3131 3298 2873 
Q 3191 2616 2906 2266 
Q 2828 2175 2409 1742 
Q 1991 1309 1228 531 
z
" id="DejaVuSans-32" transform="scale(0.015625)"/>
       </defs>
       <use xlink:href="#DejaVuSans-32"/>
       <use x="63.623047" xlink:href="#DejaVuSans-30"/>
       <use x="127.246094" xlink:href="#DejaVuSans-30"/>
      </g>
     </g>
    </g>
    <g id="xtick_3">
     <g id="line2d_5">
      <path clip-path="url(#p999adf8dc7)" d="M 656.536673 815.631296 
L 656.536673 109.9872 
" style="fill:none;stroke:#b0b0b0;stroke-linecap:square;stroke-width:0.8;"/>
     </g>
     <g id="line2d_6">
      <g>
       <use style="stroke:#000000;stroke-width:0.8;" x="656.536673" xlink:href="#m9250283ef7" y="815.631296"/>
      </g>
     </g>
     <g id="text_3">
      <!-- 400 -->
      <g transform="translate(646.992923 830.229733)scale(0.1 -0.1)">
       <defs>
        <path d="M 2419 4116 
L 825 1625 
L 2419 1625 
L 2419 4116 
z
M 2253 4666 
L 3047 4666 
L 3047 1625 
L 3713 1625 
L 3713 1100 
L 3047 1100 
L 3047 0 
L 2419 0 
L 2419 1100 
L 313 1100 
L 313 1709 
L 2253 4666 
z
" id="DejaVuSans-34" transform="scale(0.015625)"/>
       </defs>
       <use xlink:href="#DejaVuSans-34"/>
       <use x="63.623047" xlink:href="#DejaVuSans-30"/>
       <use x="127.246094" xlink:href="#DejaVuSans-30"/>
      </g>
     </g>
    </g>
    <g id="xtick_4">
     <g id="line2d_7">
      <path clip-path="url(#p999adf8dc7)" d="M 865.3957 815.631296 
L 865.3957 109.9872 
" style="fill:none;stroke:#b0b0b0;stroke-linecap:square;stroke-width:0.8;"/>
     </g>
     <g id="line2d_8">
      <g>
       <use style="stroke:#000000;stroke-width:0.8;" x="865.3957" xlink:href="#m9250283ef7" y="815.631296"/>
      </g>
     </g>
     <g id="text_4">
      <!-- 600 -->
      <g transform="translate(855.85195 830.229733)scale(0.1 -0.1)">
       <defs>
        <path d="M 2113 2584 
Q 1688 2584 1439 2293 
Q 1191 2003 1191 1497 
Q 1191 994 1439 701 
Q 1688 409 2113 409 
Q 2538 409 2786 701 
Q 3034 994 3034 1497 
Q 3034 2003 2786 2293 
Q 2538 2584 2113 2584 
z
M 3366 4563 
L 3366 3988 
Q 3128 4100 2886 4159 
Q 2644 4219 2406 4219 
Q 1781 4219 1451 3797 
Q 1122 3375 1075 2522 
Q 1259 2794 1537 2939 
Q 1816 3084 2150 3084 
Q 2853 3084 3261 2657 
Q 3669 2231 3669 1497 
Q 3669 778 3244 343 
Q 2819 -91 2113 -91 
Q 1303 -91 875 529 
Q 447 1150 447 2328 
Q 447 3434 972 4092 
Q 1497 4750 2381 4750 
Q 2619 4750 2861 4703 
Q 3103 4656 3366 4563 
z
" id="DejaVuSans-36" transform="scale(0.015625)"/>
       </defs>
       <use xlink:href="#DejaVuSans-36"/>
       <use x="63.623047" xlink:href="#DejaVuSans-30"/>
       <use x="127.246094" xlink:href="#DejaVuSans-30"/>
      </g>
     </g>
    </g>
    <g id="xtick_5">
     <g id="line2d_9">
      <path clip-path="url(#p999adf8dc7)" d="M 1074.254726 815.631296 
L 1074.254726 109.9872 
" style="fill:none;stroke:#b0b0b0;stroke-linecap:square;stroke-width:0.8;"/>
     </g>
     <g id="line2d_10">
      <g>
       <use style="stroke:#000000;stroke-width:0.8;" x="1074.254726" xlink:href="#m9250283ef7" y="815.631296"/>
      </g>
     </g>
     <g id="text_5">
      <!-- 800 -->
      <g transform="translate(1064.710976 830.229733)scale(0.1 -0.1)">
       <defs>
        <path d="M 2034 2216 
Q 1584 2216 1326 1975 
Q 1069 1734 1069 1313 
Q 1069 891 1326 650 
Q 1584 409 2034 409 
Q 2484 409 2743 651 
Q 3003 894 3003 1313 
Q 3003 1734 2745 1975 
Q 2488 2216 2034 2216 
z
M 1403 2484 
Q 997 2584 770 2862 
Q 544 3141 544 3541 
Q 544 4100 942 4425 
Q 1341 4750 2034 4750 
Q 2731 4750 3128 4425 
Q 3525 4100 3525 3541 
Q 3525 3141 3298 2862 
Q 3072 2584 2669 2484 
Q 3125 2378 3379 2068 
Q 3634 1759 3634 1313 
Q 3634 634 3220 271 
Q 2806 -91 2034 -91 
Q 1263 -91 848 271 
Q 434 634 434 1313 
Q 434 1759 690 2068 
Q 947 2378 1403 2484 
z
M 1172 3481 
Q 1172 3119 1398 2916 
Q 1625 2713 2034 2713 
Q 2441 2713 2670 2916 
Q 2900 3119 2900 3481 
Q 2900 3844 2670 4047 
Q 2441 4250 2034 4250 
Q 1625 4250 1398 4047 
Q 1172 3844 1172 3481 
z
" id="DejaVuSans-38" transform="scale(0.015625)"/>
       </defs>
       <use xlink:href="#DejaVuSans-38"/>
       <use x="63.623047" xlink:href="#DejaVuSans-30"/>
       <use x="127.246094" xlink:href="#DejaVuSans-30"/>
      </g>
     </g>
    </g>
    <g id="xtick_6">
     <g id="line2d_11">
      <path clip-path="url(#p999adf8dc7)" d="M 1283.113753 815.631296 
L 1283.113753 109.9872 
" style="fill:none;stroke:#b0b0b0;stroke-linecap:square;stroke-width:0.8;"/>
     </g>
     <g id="line2d_12">
      <g>
       <use style="stroke:#000000;stroke-width:0.8;" x="1283.113753" xlink:href="#m9250283ef7" y="815.631296"/>
      </g>
     </g>
     <g id="text_6">
      <!-- 1000 -->
      <g transform="translate(1270.388753 830.229733)scale(0.1 -0.1)">
       <defs>
        <path d="M 794 531 
L 1825 531 
L 1825 4091 
L 703 3866 
L 703 4441 
L 1819 4666 
L 2450 4666 
L 2450 531 
L 3481 531 
L 3481 0 
L 794 0 
L 794 531 
z
" id="DejaVuSans-31" transform="scale(0.015625)"/>
       </defs>
       <use xlink:href="#DejaVuSans-31"/>
       <use x="63.623047" xlink:href="#DejaVuSans-30"/>
       <use x="127.246094" xlink:href="#DejaVuSans-30"/>
       <use x="190.869141" xlink:href="#DejaVuSans-30"/>
      </g>
     </g>
    </g>
    <g id="text_7">
     <!-- epoch -->
     <g transform="translate(745.215914 843.907858)scale(0.1 -0.1)">
      <defs>
       <path d="M 3597 1894 
L 3597 1613 
L 953 1613 
Q 991 1019 1311 708 
Q 1631 397 2203 397 
Q 2534 397 2845 478 
Q 3156 559 3463 722 
L 3463 178 
Q 3153 47 2828 -22 
Q 2503 -91 2169 -91 
Q 1331 -91 842 396 
Q 353 884 353 1716 
Q 353 2575 817 3079 
Q 1281 3584 2069 3584 
Q 2775 3584 3186 3129 
Q 3597 2675 3597 1894 
z
M 3022 2063 
Q 3016 2534 2758 2815 
Q 2500 3097 2075 3097 
Q 1594 3097 1305 2825 
Q 1016 2553 972 2059 
L 3022 2063 
z
" id="DejaVuSans-65" transform="scale(0.015625)"/>
       <path d="M 1159 525 
L 1159 -1331 
L 581 -1331 
L 581 3500 
L 1159 3500 
L 1159 2969 
Q 1341 3281 1617 3432 
Q 1894 3584 2278 3584 
Q 2916 3584 3314 3078 
Q 3713 2572 3713 1747 
Q 3713 922 3314 415 
Q 2916 -91 2278 -91 
Q 1894 -91 1617 61 
Q 1341 213 1159 525 
z
M 3116 1747 
Q 3116 2381 2855 2742 
Q 2594 3103 2138 3103 
Q 1681 3103 1420 2742 
Q 1159 2381 1159 1747 
Q 1159 1113 1420 752 
Q 1681 391 2138 391 
Q 2594 391 2855 752 
Q 3116 1113 3116 1747 
z
" id="DejaVuSans-70" transform="scale(0.015625)"/>
       <path d="M 1959 3097 
Q 1497 3097 1228 2736 
Q 959 2375 959 1747 
Q 959 1119 1226 758 
Q 1494 397 1959 397 
Q 2419 397 2687 759 
Q 2956 1122 2956 1747 
Q 2956 2369 2687 2733 
Q 2419 3097 1959 3097 
z
M 1959 3584 
Q 2709 3584 3137 3096 
Q 3566 2609 3566 1747 
Q 3566 888 3137 398 
Q 2709 -91 1959 -91 
Q 1206 -91 779 398 
Q 353 888 353 1747 
Q 353 2609 779 3096 
Q 1206 3584 1959 3584 
z
" id="DejaVuSans-6f" transform="scale(0.015625)"/>
       <path d="M 3122 3366 
L 3122 2828 
Q 2878 2963 2633 3030 
Q 2388 3097 2138 3097 
Q 1578 3097 1268 2742 
Q 959 2388 959 1747 
Q 959 1106 1268 751 
Q 1578 397 2138 397 
Q 2388 397 2633 464 
Q 2878 531 3122 666 
L 3122 134 
Q 2881 22 2623 -34 
Q 2366 -91 2075 -91 
Q 1284 -91 818 406 
Q 353 903 353 1747 
Q 353 2603 823 3093 
Q 1294 3584 2113 3584 
Q 2378 3584 2631 3529 
Q 2884 3475 3122 3366 
z
" id="DejaVuSans-63" transform="scale(0.015625)"/>
       <path d="M 3513 2113 
L 3513 0 
L 2938 0 
L 2938 2094 
Q 2938 2591 2744 2837 
Q 2550 3084 2163 3084 
Q 1697 3084 1428 2787 
Q 1159 2491 1159 1978 
L 1159 0 
L 581 0 
L 581 4863 
L 1159 4863 
L 1159 2956 
Q 1366 3272 1645 3428 
Q 1925 3584 2291 3584 
Q 2894 3584 3203 3211 
Q 3513 2838 3513 2113 
z
" id="DejaVuSans-68" transform="scale(0.015625)"/>
      </defs>
      <use xlink:href="#DejaVuSans-65"/>
      <use x="61.523438" xlink:href="#DejaVuSans-70"/>
      <use x="125" xlink:href="#DejaVuSans-6f"/>
      <use x="186.181641" xlink:href="#DejaVuSans-63"/>
      <use x="241.162109" xlink:href="#DejaVuSans-68"/>
     </g>
    </g>
   </g>
   <g id="matplotlib.axis_2">
    <g id="ytick_1">
     <g id="line2d_13">
      <path clip-path="url(#p999adf8dc7)" d="M 186.656077 815.631296 
L 1334.232 815.631296 
" style="fill:none;stroke:#b0b0b0;stroke-linecap:square;stroke-width:0.8;"/>
     </g>
     <g id="line2d_14">
      <defs>
       <path d="M 0 0 
L -3.5 0 
" id="mc6d2975688" style="stroke:#000000;stroke-width:0.8;"/>
      </defs>
      <g>
       <use style="stroke:#000000;stroke-width:0.8;" x="186.656077" xlink:href="#mc6d2975688" y="815.631296"/>
      </g>
     </g>
     <g id="text_8">
      <!-- 0.00 -->
      <g transform="translate(157.390452 819.430515)scale(0.1 -0.1)">
       <defs>
        <path d="M 684 794 
L 1344 794 
L 1344 0 
L 684 0 
L 684 794 
z
" id="DejaVuSans-2e" transform="scale(0.015625)"/>
       </defs>
       <use xlink:href="#DejaVuSans-30"/>
       <use x="63.623047" xlink:href="#DejaVuSans-2e"/>
       <use x="95.410156" xlink:href="#DejaVuSans-30"/>
       <use x="159.033203" xlink:href="#DejaVuSans-30"/>
      </g>
     </g>
    </g>
    <g id="ytick_2">
     <g id="line2d_15">
      <path clip-path="url(#p999adf8dc7)" d="M 186.656077 727.425784 
L 1334.232 727.425784 
" style="fill:none;stroke:#b0b0b0;stroke-linecap:square;stroke-width:0.8;"/>
     </g>
     <g id="line2d_16">
      <g>
       <use style="stroke:#000000;stroke-width:0.8;" x="186.656077" xlink:href="#mc6d2975688" y="727.425784"/>
      </g>
     </g>
     <g id="text_9">
      <!-- 0.05 -->
      <g transform="translate(157.390452 731.225003)scale(0.1 -0.1)">
       <defs>
        <path d="M 691 4666 
L 3169 4666 
L 3169 4134 
L 1269 4134 
L 1269 2991 
Q 1406 3038 1543 3061 
Q 1681 3084 1819 3084 
Q 2600 3084 3056 2656 
Q 3513 2228 3513 1497 
Q 3513 744 3044 326 
Q 2575 -91 1722 -91 
Q 1428 -91 1123 -41 
Q 819 9 494 109 
L 494 744 
Q 775 591 1075 516 
Q 1375 441 1709 441 
Q 2250 441 2565 725 
Q 2881 1009 2881 1497 
Q 2881 1984 2565 2268 
Q 2250 2553 1709 2553 
Q 1456 2553 1204 2497 
Q 953 2441 691 2322 
L 691 4666 
z
" id="DejaVuSans-35" transform="scale(0.015625)"/>
       </defs>
       <use xlink:href="#DejaVuSans-30"/>
       <use x="63.623047" xlink:href="#DejaVuSans-2e"/>
       <use x="95.410156" xlink:href="#DejaVuSans-30"/>
       <use x="159.033203" xlink:href="#DejaVuSans-35"/>
      </g>
     </g>
    </g>
    <g id="ytick_3">
     <g id="line2d_17">
      <path clip-path="url(#p999adf8dc7)" d="M 186.656077 639.220272 
L 1334.232 639.220272 
" style="fill:none;stroke:#b0b0b0;stroke-linecap:square;stroke-width:0.8;"/>
     </g>
     <g id="line2d_18">
      <g>
       <use style="stroke:#000000;stroke-width:0.8;" x="186.656077" xlink:href="#mc6d2975688" y="639.220272"/>
      </g>
     </g>
     <g id="text_10">
      <!-- 0.10 -->
      <g transform="translate(157.390452 643.019491)scale(0.1 -0.1)">
       <use xlink:href="#DejaVuSans-30"/>
       <use x="63.623047" xlink:href="#DejaVuSans-2e"/>
       <use x="95.410156" xlink:href="#DejaVuSans-31"/>
       <use x="159.033203" xlink:href="#DejaVuSans-30"/>
      </g>
     </g>
    </g>
    <g id="ytick_4">
     <g id="line2d_19">
      <path clip-path="url(#p999adf8dc7)" d="M 186.656077 551.01476 
L 1334.232 551.01476 
" style="fill:none;stroke:#b0b0b0;stroke-linecap:square;stroke-width:0.8;"/>
     </g>
     <g id="line2d_20">
      <g>
       <use style="stroke:#000000;stroke-width:0.8;" x="186.656077" xlink:href="#mc6d2975688" y="551.01476"/>
      </g>
     </g>
     <g id="text_11">
      <!-- 0.15 -->
      <g transform="translate(157.390452 554.813979)scale(0.1 -0.1)">
       <use xlink:href="#DejaVuSans-30"/>
       <use x="63.623047" xlink:href="#DejaVuSans-2e"/>
       <use x="95.410156" xlink:href="#DejaVuSans-31"/>
       <use x="159.033203" xlink:href="#DejaVuSans-35"/>
      </g>
     </g>
    </g>
    <g id="ytick_5">
     <g id="line2d_21">
      <path clip-path="url(#p999adf8dc7)" d="M 186.656077 462.809248 
L 1334.232 462.809248 
" style="fill:none;stroke:#b0b0b0;stroke-linecap:square;stroke-width:0.8;"/>
     </g>
     <g id="line2d_22">
      <g>
       <use style="stroke:#000000;stroke-width:0.8;" x="186.656077" xlink:href="#mc6d2975688" y="462.809248"/>
      </g>
     </g>
     <g id="text_12">
      <!-- 0.20 -->
      <g transform="translate(157.390452 466.608467)scale(0.1 -0.1)">
       <use xlink:href="#DejaVuSans-30"/>
       <use x="63.623047" xlink:href="#DejaVuSans-2e"/>
       <use x="95.410156" xlink:href="#DejaVuSans-32"/>
       <use x="159.033203" xlink:href="#DejaVuSans-30"/>
      </g>
     </g>
    </g>
    <g id="ytick_6">
     <g id="line2d_23">
      <path clip-path="url(#p999adf8dc7)" d="M 186.656077 374.603736 
L 1334.232 374.603736 
" style="fill:none;stroke:#b0b0b0;stroke-linecap:square;stroke-width:0.8;"/>
     </g>
     <g id="line2d_24">
      <g>
       <use style="stroke:#000000;stroke-width:0.8;" x="186.656077" xlink:href="#mc6d2975688" y="374.603736"/>
      </g>
     </g>
     <g id="text_13">
      <!-- 0.25 -->
      <g transform="translate(157.390452 378.402955)scale(0.1 -0.1)">
       <use xlink:href="#DejaVuSans-30"/>
       <use x="63.623047" xlink:href="#DejaVuSans-2e"/>
       <use x="95.410156" xlink:href="#DejaVuSans-32"/>
       <use x="159.033203" xlink:href="#DejaVuSans-35"/>
      </g>
     </g>
    </g>
    <g id="ytick_7">
     <g id="line2d_25">
      <path clip-path="url(#p999adf8dc7)" d="M 186.656077 286.398224 
L 1334.232 286.398224 
" style="fill:none;stroke:#b0b0b0;stroke-linecap:square;stroke-width:0.8;"/>
     </g>
     <g id="line2d_26">
      <g>
       <use style="stroke:#000000;stroke-width:0.8;" x="186.656077" xlink:href="#mc6d2975688" y="286.398224"/>
      </g>
     </g>
     <g id="text_14">
      <!-- 0.30 -->
      <g transform="translate(157.390452 290.197443)scale(0.1 -0.1)">
       <defs>
        <path d="M 2597 2516 
Q 3050 2419 3304 2112 
Q 3559 1806 3559 1356 
Q 3559 666 3084 287 
Q 2609 -91 1734 -91 
Q 1441 -91 1130 -33 
Q 819 25 488 141 
L 488 750 
Q 750 597 1062 519 
Q 1375 441 1716 441 
Q 2309 441 2620 675 
Q 2931 909 2931 1356 
Q 2931 1769 2642 2001 
Q 2353 2234 1838 2234 
L 1294 2234 
L 1294 2753 
L 1863 2753 
Q 2328 2753 2575 2939 
Q 2822 3125 2822 3475 
Q 2822 3834 2567 4026 
Q 2313 4219 1838 4219 
Q 1578 4219 1281 4162 
Q 984 4106 628 3988 
L 628 4550 
Q 988 4650 1302 4700 
Q 1616 4750 1894 4750 
Q 2613 4750 3031 4423 
Q 3450 4097 3450 3541 
Q 3450 3153 3228 2886 
Q 3006 2619 2597 2516 
z
" id="DejaVuSans-33" transform="scale(0.015625)"/>
       </defs>
       <use xlink:href="#DejaVuSans-30"/>
       <use x="63.623047" xlink:href="#DejaVuSans-2e"/>
       <use x="95.410156" xlink:href="#DejaVuSans-33"/>
       <use x="159.033203" xlink:href="#DejaVuSans-30"/>
      </g>
     </g>
    </g>
    <g id="ytick_8">
     <g id="line2d_27">
      <path clip-path="url(#p999adf8dc7)" d="M 186.656077 198.192712 
L 1334.232 198.192712 
" style="fill:none;stroke:#b0b0b0;stroke-linecap:square;stroke-width:0.8;"/>
     </g>
     <g id="line2d_28">
      <g>
       <use style="stroke:#000000;stroke-width:0.8;" x="186.656077" xlink:href="#mc6d2975688" y="198.192712"/>
      </g>
     </g>
     <g id="text_15">
      <!-- 0.35 -->
      <g transform="translate(157.390452 201.991931)scale(0.1 -0.1)">
       <use xlink:href="#DejaVuSans-30"/>
       <use x="63.623047" xlink:href="#DejaVuSans-2e"/>
       <use x="95.410156" xlink:href="#DejaVuSans-33"/>
       <use x="159.033203" xlink:href="#DejaVuSans-35"/>
      </g>
     </g>
    </g>
    <g id="ytick_9">
     <g id="line2d_29">
      <path clip-path="url(#p999adf8dc7)" d="M 186.656077 109.9872 
L 1334.232 109.9872 
" style="fill:none;stroke:#b0b0b0;stroke-linecap:square;stroke-width:0.8;"/>
     </g>
     <g id="line2d_30">
      <g>
       <use style="stroke:#000000;stroke-width:0.8;" x="186.656077" xlink:href="#mc6d2975688" y="109.9872"/>
      </g>
     </g>
     <g id="text_16">
      <!-- 0.40 -->
      <g transform="translate(157.390452 113.786419)scale(0.1 -0.1)">
       <use xlink:href="#DejaVuSans-30"/>
       <use x="63.623047" xlink:href="#DejaVuSans-2e"/>
       <use x="95.410156" xlink:href="#DejaVuSans-34"/>
       <use x="159.033203" xlink:href="#DejaVuSans-30"/>
      </g>
     </g>
    </g>
    <g id="text_17">
     <!-- error [mpg] -->
     <g transform="translate(151.310765 491.620967)rotate(-90)scale(0.1 -0.1)">
      <defs>
       <path d="M 2631 2963 
Q 2534 3019 2420 3045 
Q 2306 3072 2169 3072 
Q 1681 3072 1420 2755 
Q 1159 2438 1159 1844 
L 1159 0 
L 581 0 
L 581 3500 
L 1159 3500 
L 1159 2956 
Q 1341 3275 1631 3429 
Q 1922 3584 2338 3584 
Q 2397 3584 2469 3576 
Q 2541 3569 2628 3553 
L 2631 2963 
z
" id="DejaVuSans-72" transform="scale(0.015625)"/>
       <path id="DejaVuSans-20" transform="scale(0.015625)"/>
       <path d="M 550 4863 
L 1875 4863 
L 1875 4416 
L 1125 4416 
L 1125 -397 
L 1875 -397 
L 1875 -844 
L 550 -844 
L 550 4863 
z
" id="DejaVuSans-5b" transform="scale(0.015625)"/>
       <path d="M 3328 2828 
Q 3544 3216 3844 3400 
Q 4144 3584 4550 3584 
Q 5097 3584 5394 3201 
Q 5691 2819 5691 2113 
L 5691 0 
L 5113 0 
L 5113 2094 
Q 5113 2597 4934 2840 
Q 4756 3084 4391 3084 
Q 3944 3084 3684 2787 
Q 3425 2491 3425 1978 
L 3425 0 
L 2847 0 
L 2847 2094 
Q 2847 2600 2669 2842 
Q 2491 3084 2119 3084 
Q 1678 3084 1418 2786 
Q 1159 2488 1159 1978 
L 1159 0 
L 581 0 
L 581 3500 
L 1159 3500 
L 1159 2956 
Q 1356 3278 1631 3431 
Q 1906 3584 2284 3584 
Q 2666 3584 2933 3390 
Q 3200 3197 3328 2828 
z
" id="DejaVuSans-6d" transform="scale(0.015625)"/>
       <path d="M 2906 1791 
Q 2906 2416 2648 2759 
Q 2391 3103 1925 3103 
Q 1463 3103 1205 2759 
Q 947 2416 947 1791 
Q 947 1169 1205 825 
Q 1463 481 1925 481 
Q 2391 481 2648 825 
Q 2906 1169 2906 1791 
z
M 3481 434 
Q 3481 -459 3084 -895 
Q 2688 -1331 1869 -1331 
Q 1566 -1331 1297 -1286 
Q 1028 -1241 775 -1147 
L 775 -588 
Q 1028 -725 1275 -790 
Q 1522 -856 1778 -856 
Q 2344 -856 2625 -561 
Q 2906 -266 2906 331 
L 2906 616 
Q 2728 306 2450 153 
Q 2172 0 1784 0 
Q 1141 0 747 490 
Q 353 981 353 1791 
Q 353 2603 747 3093 
Q 1141 3584 1784 3584 
Q 2172 3584 2450 3431 
Q 2728 3278 2906 2969 
L 2906 3500 
L 3481 3500 
L 3481 434 
z
" id="DejaVuSans-67" transform="scale(0.015625)"/>
       <path d="M 1947 4863 
L 1947 -844 
L 622 -844 
L 622 -397 
L 1369 -397 
L 1369 4416 
L 622 4416 
L 622 4863 
L 1947 4863 
z
" id="DejaVuSans-5d" transform="scale(0.015625)"/>
      </defs>
      <use xlink:href="#DejaVuSans-65"/>
      <use x="61.523438" xlink:href="#DejaVuSans-72"/>
      <use x="100.886719" xlink:href="#DejaVuSans-72"/>
      <use x="139.75" xlink:href="#DejaVuSans-6f"/>
      <use x="200.931641" xlink:href="#DejaVuSans-72"/>
      <use x="242.044922" xlink:href="#DejaVuSans-20"/>
      <use x="273.832031" xlink:href="#DejaVuSans-5b"/>
      <use x="312.845703" xlink:href="#DejaVuSans-6d"/>
      <use x="410.257812" xlink:href="#DejaVuSans-70"/>
      <use x="473.734375" xlink:href="#DejaVuSans-67"/>
      <use x="537.210938" xlink:href="#DejaVuSans-5d"/>
     </g>
    </g>
   </g>
   <g id="line2d_31">
    <path clip-path="url(#p999adf8dc7)" d="M 238.854184 -1 
L 239.862915 402.360749 
L 240.90721 493.429915 
L 241.951505 525.166009 
L 242.9958 530.592232 
L 244.040095 587.287557 
L 245.08439 601.755386 
L 246.128685 605.894727 
L 247.17298 622.037713 
L 248.217276 626.753456 
L 249.261571 646.019385 
L 250.305866 642.192442 
L 251.350161 640.621619 
L 252.394456 660.732014 
L 253.438751 656.332231 
L 254.483046 650.721301 
L 255.527342 668.322167 
L 256.571637 672.649922 
L 257.615932 654.879503 
L 258.660227 676.684838 
L 259.704522 674.318259 
L 260.748817 678.928984 
L 261.793112 682.230234 
L 262.837407 675.094522 
L 263.881703 692.677105 
L 264.925998 681.53851 
L 265.970293 678.873426 
L 267.014588 697.500219 
L 268.058883 680.09125 
L 269.103178 698.749273 
L 270.147473 691.387911 
L 271.191769 698.775139 
L 272.236064 690.285698 
L 273.280359 689.035225 
L 274.324654 699.398017 
L 275.368949 701.357314 
L 276.413244 699.354367 
L 277.457539 702.420332 
L 278.501834 694.470109 
L 279.54613 708.149036 
L 280.590425 712.696652 
L 281.63472 697.838944 
L 282.679015 707.601991 
L 283.72331 707.453297 
L 284.767605 700.664919 
L 285.8119 713.080565 
L 287.900491 714.806444 
L 288.944786 700.097009 
L 289.989081 718.865083 
L 291.033376 718.085869 
L 292.077671 714.726471 
L 293.121966 717.187316 
L 294.166262 704.97041 
L 295.210557 717.362449 
L 296.254852 721.025281 
L 297.299147 714.856896 
L 299.387737 718.478575 
L 300.432032 721.40203 
L 301.476327 714.349124 
L 302.520623 716.809443 
L 303.564918 712.693609 
L 304.609213 722.013519 
L 305.653508 727.510204 
L 306.697803 721.044727 
L 307.742098 723.016471 
L 308.786393 716.177516 
L 309.830689 720.209665 
L 310.874984 716.905615 
L 311.919279 728.595751 
L 312.963574 723.867982 
L 314.007869 728.56859 
L 315.052164 725.819327 
L 316.096459 731.626235 
L 317.140754 721.22768 
L 318.18505 725.284722 
L 319.229345 719.730152 
L 320.27364 721.683935 
L 321.317935 727.176822 
L 322.36223 727.482419 
L 323.406525 730.663148 
L 324.45082 736.678909 
L 325.495116 733.945951 
L 326.539411 726.149942 
L 327.583706 730.294791 
L 328.628001 729.539379 
L 329.672296 734.832082 
L 330.716591 731.951974 
L 331.760886 708.967616 
L 332.805181 736.558388 
L 333.849477 739.769986 
L 334.893772 733.685707 
L 335.938067 735.678526 
L 336.982362 725.706646 
L 338.026657 737.884674 
L 339.070952 742.798459 
L 340.115247 732.899763 
L 341.159543 737.969254 
L 342.203838 726.454408 
L 343.248133 733.754264 
L 344.292428 733.309168 
L 345.336723 732.454929 
L 346.381018 744.157473 
L 347.425313 726.455854 
L 348.469608 739.963427 
L 349.513904 739.313711 
L 350.558199 739.607438 
L 351.602494 740.561286 
L 352.646789 737.97988 
L 353.691084 728.029181 
L 354.735379 744.271224 
L 356.82397 737.780347 
L 357.868265 742.837581 
L 358.91256 734.681134 
L 359.956855 729.579691 
L 361.00115 745.640877 
L 362.045445 748.853927 
L 363.08974 738.60304 
L 364.134035 738.670783 
L 365.178331 744.840121 
L 366.222626 736.766906 
L 367.266921 750.539297 
L 368.311216 744.868222 
L 369.355511 744.309479 
L 370.399806 727.436633 
L 371.444101 745.885514 
L 372.488397 736.622096 
L 374.576987 752.102379 
L 375.621282 742.790855 
L 376.665577 749.146616 
L 377.709872 742.809907 
L 378.754167 748.416014 
L 379.798462 752.424359 
L 380.842758 744.494062 
L 381.887053 752.32383 
L 382.931348 742.768767 
L 383.975643 727.828215 
L 385.019938 749.878704 
L 386.064233 747.901269 
L 387.108528 754.096651 
L 388.152824 740.60117 
L 389.197119 741.166827 
L 390.241414 748.4128 
L 391.285709 749.796832 
L 392.330004 735.148765 
L 393.374299 746.929145 
L 394.418594 751.3757 
L 395.462889 750.229528 
L 396.507185 739.58953 
L 397.55148 749.310031 
L 398.595775 750.836186 
L 399.64007 754.335498 
L 400.684365 747.058715 
L 401.72866 750.288503 
L 402.772955 742.238356 
L 403.817251 748.705141 
L 404.861546 754.268209 
L 405.905841 748.588235 
L 406.950136 749.189037 
L 407.994431 758.866612 
L 409.038726 749.367535 
L 410.083021 754.984583 
L 411.127316 744.209239 
L 412.171612 753.695238 
L 413.215907 757.705121 
L 414.260202 762.472416 
L 415.304497 740.830599 
L 416.348792 752.748764 
L 417.393087 752.629209 
L 418.437382 757.440907 
L 419.481678 745.82803 
L 420.525973 749.208207 
L 421.570268 754.486505 
L 422.614563 753.803121 
L 423.658858 756.123618 
L 424.703153 750.306694 
L 425.747448 756.08192 
L 426.791743 754.88387 
L 427.836039 732.873817 
L 428.880334 757.010979 
L 429.924629 756.109187 
L 430.968924 756.494479 
L 432.013219 757.861629 
L 433.057514 758.243005 
L 434.101809 748.929582 
L 435.146105 757.173743 
L 436.1904 758.284499 
L 437.234695 760.502969 
L 438.27899 751.064813 
L 440.36758 760.81123 
L 441.411875 753.873531 
L 442.456171 758.765005 
L 443.500466 764.922973 
L 444.544761 743.379296 
L 445.589056 760.232361 
L 446.633351 759.345974 
L 447.677646 758.003547 
L 448.721941 748.934314 
L 449.766236 760.486665 
L 450.810532 767.582423 
L 451.854827 758.461176 
L 452.899122 761.069079 
L 453.943417 758.377024 
L 454.987712 754.251391 
L 456.032007 760.083082 
L 457.076302 762.202068 
L 458.120598 760.929566 
L 459.164893 763.154834 
L 460.209188 761.340085 
L 461.253483 763.205296 
L 462.297778 752.239303 
L 463.342073 762.325595 
L 464.386368 759.143246 
L 465.430663 758.672408 
L 466.474959 760.023404 
L 467.519254 761.688023 
L 468.563549 764.547289 
L 469.607844 759.856926 
L 471.696434 753.766851 
L 472.740729 765.689721 
L 473.785025 761.985474 
L 474.82932 763.042499 
L 475.873615 765.851388 
L 476.91791 756.309634 
L 477.962205 766.266908 
L 479.0065 763.509325 
L 480.050795 766.396005 
L 481.09509 759.670904 
L 482.139386 756.490168 
L 483.183681 769.460403 
L 484.227976 766.406714 
L 485.272271 765.980833 
L 486.316566 753.021521 
L 488.405156 768.804791 
L 489.449452 759.438794 
L 490.493747 760.291173 
L 491.538042 765.81085 
L 492.582337 767.716616 
L 493.626632 758.442874 
L 494.670927 765.668001 
L 495.715222 764.253558 
L 496.759517 766.916595 
L 497.803813 756.652144 
L 498.848108 767.850011 
L 499.892403 767.086372 
L 500.936698 768.951866 
L 501.980993 768.362919 
L 503.025288 756.012791 
L 504.069583 767.706633 
L 505.113879 770.140593 
L 506.158174 771.374686 
L 507.202469 763.975931 
L 508.246764 767.560118 
L 509.291059 768.521828 
L 510.335354 770.21406 
L 511.379649 760.595569 
L 512.423944 770.587172 
L 513.46824 756.904916 
L 514.512535 776.48928 
L 515.55683 765.053303 
L 516.601125 775.717166 
L 517.64542 762.477447 
L 518.689715 767.015869 
L 519.73401 759.774798 
L 520.778306 761.925513 
L 521.822601 767.861104 
L 522.866896 768.389498 
L 523.911191 767.059904 
L 524.955486 766.372189 
L 525.999781 773.539823 
L 527.044076 765.570837 
L 528.088371 767.515502 
L 529.132667 770.210606 
L 530.176962 768.643424 
L 531.221257 770.137521 
L 532.265552 769.427035 
L 533.309847 773.386413 
L 534.354142 762.877852 
L 535.398437 766.500004 
L 536.442733 772.712667 
L 537.487028 773.928349 
L 538.531323 755.206336 
L 539.575618 771.522345 
L 540.619913 768.78777 
L 541.664208 769.221176 
L 542.708503 767.181472 
L 543.752798 762.623286 
L 544.797094 769.701625 
L 545.841389 766.447981 
L 546.885684 770.406742 
L 547.929979 770.671669 
L 548.974274 765.415265 
L 550.018569 758.904939 
L 551.062864 774.512393 
L 552.10716 774.249974 
L 553.151455 758.642519 
L 554.19575 774.550303 
L 555.240045 768.505639 
L 556.28434 773.347824 
L 557.328635 769.583911 
L 558.37293 769.008226 
L 559.417225 776.13862 
L 560.461521 752.182976 
L 561.505816 772.973263 
L 562.550111 774.99231 
L 563.594406 769.565802 
L 564.638701 771.909836 
L 565.682996 766.893029 
L 566.727291 771.476155 
L 567.771587 770.940233 
L 568.815882 772.525209 
L 569.860177 776.540504 
L 571.948767 768.426938 
L 572.993062 776.100648 
L 574.037357 771.883759 
L 575.081652 775.443486 
L 576.125948 766.88296 
L 577.170243 773.17275 
L 578.214538 777.64547 
L 579.258833 761.974916 
L 580.303128 777.218729 
L 581.347423 773.931957 
L 582.391718 767.973216 
L 583.436014 774.480224 
L 584.480309 774.232756 
L 585.524604 769.935493 
L 586.568899 777.694585 
L 587.613194 771.218533 
L 588.657489 771.520479 
L 589.701784 764.737017 
L 590.74608 773.215789 
L 591.790375 778.019565 
L 592.83467 770.854523 
L 593.878965 777.31821 
L 594.92326 775.695512 
L 595.967555 767.819869 
L 597.01185 779.701449 
L 598.056145 775.837582 
L 599.100441 775.276269 
L 600.144736 775.615145 
L 601.189031 766.390084 
L 602.233326 776.476652 
L 603.277621 771.894964 
L 604.321916 774.560775 
L 605.366211 776.357275 
L 606.410507 773.658779 
L 607.454802 770.364804 
L 608.499097 771.48945 
L 609.543392 778.909097 
L 610.587687 776.634113 
L 611.631982 777.286649 
L 612.676277 773.589755 
L 613.720572 768.295321 
L 614.764868 771.837645 
L 615.809163 771.779767 
L 616.853458 775.323011 
L 617.897753 777.111786 
L 618.942048 771.397152 
L 619.986343 781.914444 
L 621.030638 773.499485 
L 622.074934 769.616497 
L 623.119229 770.710121 
L 624.163524 778.638305 
L 625.207819 778.308994 
L 626.252114 768.968151 
L 627.296409 776.529056 
L 628.340704 772.863733 
L 629.384999 774.517335 
L 630.429295 774.069577 
L 631.47359 781.04465 
L 632.517885 775.073154 
L 633.56218 784.172749 
L 634.606475 765.777557 
L 635.65077 775.237071 
L 636.695065 779.736936 
L 637.739361 770.051095 
L 638.783656 772.551082 
L 639.827951 778.054599 
L 640.872246 778.332679 
L 641.916541 777.579966 
L 642.960836 774.028931 
L 644.005131 777.40045 
L 645.049426 774.050128 
L 646.093722 774.314585 
L 647.138017 780.205061 
L 648.182312 780.57468 
L 649.226607 765.310997 
L 650.270902 778.62645 
L 651.315197 775.222788 
L 652.359492 762.155047 
L 653.403788 777.349265 
L 654.448083 779.032546 
L 655.492378 773.741679 
L 656.536673 773.29035 
L 657.580968 775.086238 
L 658.625263 776.021836 
L 659.669558 777.666648 
L 660.713853 775.473555 
L 661.758149 778.658122 
L 662.802444 777.965528 
L 663.846739 769.44605 
L 664.891034 781.917126 
L 666.979624 768.879543 
L 668.023919 780.510318 
L 669.068215 777.854116 
L 670.11251 771.388106 
L 671.156805 778.964041 
L 672.2011 774.836085 
L 673.245395 779.739378 
L 674.28969 780.751866 
L 675.333985 777.600759 
L 676.37828 772.556014 
L 677.422576 780.083485 
L 678.466871 768.612408 
L 679.511166 780.800054 
L 680.555461 782.512983 
L 681.599756 780.879993 
L 682.644051 768.705218 
L 684.732642 779.193877 
L 685.776937 772.52466 
L 686.821232 781.766904 
L 687.865527 775.8557 
L 688.909822 779.919403 
L 689.954117 780.417199 
L 690.998412 774.186638 
L 692.042707 780.213009 
L 693.087003 770.721717 
L 694.131298 780.33305 
L 695.175593 783.46682 
L 696.219888 779.973085 
L 697.264183 783.717417 
L 698.308478 781.184144 
L 699.352773 766.226734 
L 700.397069 784.302875 
L 701.441364 777.476877 
L 702.485659 776.53685 
L 704.574249 777.437577 
L 705.618544 780.485395 
L 706.662839 776.455586 
L 707.707134 777.189767 
L 708.75143 771.690709 
L 709.795725 776.301533 
L 710.84002 776.978013 
L 711.884315 783.704421 
L 712.92861 780.627014 
L 713.972905 778.077062 
L 715.0172 774.98729 
L 716.061496 781.978953 
L 717.105791 776.926533 
L 718.150086 778.924984 
L 719.194381 776.828668 
L 721.282971 779.367179 
L 722.327266 781.948529 
L 723.371561 778.97013 
L 724.415857 781.249152 
L 725.460152 774.50941 
L 726.504447 777.632829 
L 727.548742 778.863512 
L 728.593037 778.258487 
L 729.637332 778.90289 
L 730.681627 777.476653 
L 731.725923 780.296327 
L 732.770218 780.754767 
L 733.814513 781.865573 
L 734.858808 788.482597 
L 735.903103 777.418227 
L 736.947398 777.867335 
L 737.991693 763.104041 
L 739.035988 787.279726 
L 740.080284 787.154737 
L 741.124579 771.768519 
L 742.168874 783.38369 
L 743.213169 780.317567 
L 744.257464 774.617582 
L 745.301759 783.190341 
L 746.346054 779.087805 
L 747.39035 782.465475 
L 748.434645 778.215418 
L 749.47894 767.41077 
L 750.523235 785.092732 
L 751.56753 787.629459 
L 752.611825 774.62831 
L 753.65612 780.52496 
L 754.700416 779.450306 
L 755.744711 778.095298 
L 756.789006 782.86195 
L 757.833301 782.33486 
L 758.877596 772.656944 
L 759.921891 787.040183 
L 760.966186 785.912317 
L 762.010481 773.555086 
L 763.054777 785.253002 
L 764.099072 785.430977 
L 765.143367 783.208689 
L 766.187662 774.349284 
L 767.231957 774.141818 
L 768.276252 779.302233 
L 769.320547 788.743163 
L 770.364843 780.46792 
L 771.409138 787.847736 
L 772.453433 776.529608 
L 773.497728 788.143356 
L 774.542023 778.232153 
L 775.586318 786.916387 
L 776.630613 784.735271 
L 777.674908 772.624424 
L 778.719204 784.11776 
L 779.763499 785.850335 
L 780.807794 780.719743 
L 781.852089 779.629067 
L 782.896384 776.026909 
L 783.940679 785.043989 
L 784.984974 782.270561 
L 786.02927 787.650108 
L 787.073565 782.740391 
L 788.11786 782.565212 
L 789.162155 774.319684 
L 790.20645 785.287797 
L 791.250745 786.871406 
L 792.29504 776.932372 
L 793.339335 784.449535 
L 794.383631 775.261956 
L 795.427926 779.732139 
L 796.472221 787.757544 
L 797.516516 775.921931 
L 798.560811 783.094231 
L 800.649401 782.791109 
L 801.693697 771.018763 
L 802.737992 785.348639 
L 803.782287 786.910334 
L 804.826582 782.803024 
L 805.870877 787.511975 
L 806.915172 775.791365 
L 807.959467 783.054172 
L 809.003762 776.700708 
L 810.048058 787.887022 
L 811.092353 787.506004 
L 812.136648 775.187533 
L 813.180943 782.293205 
L 814.225238 779.063187 
L 815.269533 784.364545 
L 816.313828 782.239927 
L 817.358124 771.591658 
L 818.402419 789.848304 
L 819.446714 779.187282 
L 820.491009 783.398559 
L 821.535304 785.553236 
L 822.579599 781.77961 
L 823.623894 784.336746 
L 824.668189 776.772282 
L 826.75678 787.970004 
L 827.801075 786.140557 
L 828.84537 775.000975 
L 829.889665 779.627456 
L 830.93396 787.662837 
L 831.978255 776.120719 
L 833.022551 785.950178 
L 834.066846 783.858179 
L 835.111141 784.489248 
L 836.155436 777.847537 
L 837.199731 783.060692 
L 838.244026 787.640864 
L 839.288321 778.392144 
L 840.332616 780.869455 
L 841.376912 788.674357 
L 842.421207 783.873041 
L 843.465502 779.813837 
L 844.509797 783.12432 
L 845.554092 787.560609 
L 846.598387 777.956594 
L 847.642682 784.154493 
L 848.686978 785.851604 
L 849.731273 785.813592 
L 850.775568 778.527241 
L 851.819863 789.955863 
L 852.864158 781.561199 
L 853.908453 777.338359 
L 854.952748 787.949228 
L 855.997043 778.715718 
L 857.041339 787.718031 
L 858.085634 789.397833 
L 859.129929 785.516181 
L 860.174224 785.713355 
L 861.218519 778.945278 
L 862.262814 787.872948 
L 863.307109 780.533077 
L 864.351405 790.125792 
L 865.3957 788.440576 
L 866.439995 774.930141 
L 867.48429 786.097133 
L 868.528585 778.77444 
L 869.57288 788.856119 
L 870.617175 783.362703 
L 871.66147 788.45442 
L 872.705766 774.874175 
L 873.750061 789.894595 
L 874.794356 787.643378 
L 875.838651 783.730929 
L 876.882946 789.451055 
L 877.927241 784.414494 
L 878.971536 783.948266 
L 880.015832 779.420007 
L 881.060127 788.988502 
L 882.104422 792.100607 
L 883.148717 775.604022 
L 884.193012 792.423042 
L 885.237307 787.287537 
L 886.281602 786.477905 
L 887.325897 787.114668 
L 888.370193 790.074249 
L 889.414488 778.268423 
L 890.458783 785.346704 
L 891.503078 785.374384 
L 892.547373 788.59026 
L 893.591668 789.007171 
L 894.635963 777.136111 
L 895.680259 792.097278 
L 896.724554 777.218338 
L 897.768849 786.433345 
L 898.813144 783.830282 
L 899.857439 783.013023 
L 900.901734 784.22834 
L 901.946029 788.374658 
L 902.990325 783.85789 
L 904.03462 783.874277 
L 905.078915 782.212 
L 906.12321 791.794283 
L 907.167505 781.440534 
L 908.2118 790.648301 
L 909.256095 791.326974 
L 910.30039 786.655278 
L 911.344686 780.001071 
L 912.388981 779.158928 
L 913.433276 786.856889 
L 914.477571 786.135891 
L 915.521866 783.009234 
L 916.566161 785.328247 
L 917.610456 782.491513 
L 918.654752 788.795874 
L 919.699047 785.03285 
L 920.743342 776.652087 
L 921.787637 786.434133 
L 922.831932 788.889547 
L 923.876227 786.319264 
L 924.920522 778.048875 
L 925.964817 788.314248 
L 927.009113 790.121197 
L 928.053408 787.704013 
L 929.097703 793.392327 
L 930.141998 778.434901 
L 931.186293 789.046498 
L 932.230588 786.205246 
L 933.274883 782.415809 
L 934.319179 786.03131 
L 935.363474 786.328149 
L 936.407769 789.738993 
L 937.452064 779.634551 
L 938.496359 787.597799 
L 939.540654 786.469148 
L 940.584949 787.420873 
L 941.629244 784.827254 
L 942.67354 787.393537 
L 943.717835 781.272975 
L 944.76213 784.016869 
L 945.806425 788.028842 
L 946.85072 791.123309 
L 947.895015 791.820501 
L 948.93931 782.461808 
L 949.983606 782.814367 
L 951.027901 789.330196 
L 952.072196 782.884859 
L 953.116491 790.860795 
L 954.160786 783.982331 
L 955.205081 787.574226 
L 956.249376 783.204753 
L 957.293671 787.537532 
L 958.337967 782.439405 
L 959.382262 790.956671 
L 960.426557 785.412297 
L 961.470852 788.121352 
L 962.515147 790.520136 
L 963.559442 780.002326 
L 964.603737 786.138365 
L 965.648033 793.340399 
L 966.692328 788.297863 
L 967.736623 779.885437 
L 968.780918 784.263509 
L 969.825213 790.98588 
L 970.869508 785.39545 
L 971.913803 788.037612 
L 972.958098 779.236972 
L 974.002394 788.399024 
L 975.046689 786.265402 
L 976.090984 794.228611 
L 977.135279 786.699339 
L 978.179574 776.954249 
L 979.223869 792.365014 
L 980.268164 791.639038 
L 981.31246 784.432349 
L 982.356755 794.648148 
L 983.40105 786.197988 
L 984.445345 786.110915 
L 985.48964 789.170183 
L 986.533935 780.482405 
L 987.57823 790.160482 
L 988.622525 785.30146 
L 989.666821 788.897607 
L 990.711116 794.008892 
L 991.755411 792.749706 
L 992.799706 778.596742 
L 993.844001 788.091399 
L 994.888296 782.484392 
L 995.932591 793.173107 
L 998.021182 782.877998 
L 999.065477 786.970144 
L 1000.109772 792.195013 
L 1001.154067 785.306852 
L 1002.198362 790.473164 
L 1003.242657 791.660027 
L 1004.286952 789.361192 
L 1005.331248 786.449416 
L 1006.375543 774.042593 
L 1007.419838 793.396304 
L 1008.464133 790.361256 
L 1009.508428 789.717498 
L 1010.552723 790.071539 
L 1011.597018 782.550945 
L 1012.641314 791.050658 
L 1013.685609 791.695743 
L 1015.774199 782.203499 
L 1016.818494 788.787192 
L 1017.862789 791.244458 
L 1018.907084 787.883276 
L 1019.951379 789.049612 
L 1020.995675 779.470784 
L 1022.03997 791.960096 
L 1023.084265 786.834528 
L 1024.12856 791.180391 
L 1025.172855 794.381604 
L 1026.21715 783.748647 
L 1027.261445 784.650304 
L 1028.305741 794.246322 
L 1029.350036 775.586275 
L 1030.394331 791.43447 
L 1031.438626 788.260886 
L 1032.482921 790.938285 
L 1033.527216 786.085137 
L 1034.571511 790.023921 
L 1035.615806 782.980736 
L 1036.660102 792.987961 
L 1037.704397 787.963738 
L 1038.748692 790.34225 
L 1039.792987 785.991728 
L 1040.837282 786.306154 
L 1041.881577 784.104885 
L 1042.925872 791.191742 
L 1043.970168 790.733939 
L 1045.014463 788.596836 
L 1046.058758 787.246105 
L 1047.103053 791.327961 
L 1048.147348 792.287002 
L 1049.191643 786.536029 
L 1050.235938 791.963382 
L 1051.280234 788.109191 
L 1052.324529 787.771233 
L 1054.413119 792.722367 
L 1055.457414 784.574357 
L 1056.501709 779.715276 
L 1057.546004 796.457901 
L 1058.590299 778.720811 
L 1059.634595 793.89226 
L 1060.67889 791.886374 
L 1061.723185 785.767011 
L 1062.76748 793.913267 
L 1063.811775 780.843746 
L 1064.85607 790.530676 
L 1065.900365 790.819979 
L 1066.944661 787.730429 
L 1067.988956 790.35215 
L 1069.033251 783.028171 
L 1070.077546 790.510983 
L 1071.121841 792.271395 
L 1072.166136 791.708997 
L 1073.210431 788.726709 
L 1074.254726 785.078044 
L 1075.299022 789.33149 
L 1076.343317 791.388535 
L 1077.387612 793.965679 
L 1078.431907 786.627608 
L 1079.476202 791.12815 
L 1080.520497 780.225667 
L 1081.564792 792.91407 
L 1082.609088 794.866556 
L 1083.653383 784.652666 
L 1084.697678 784.68524 
L 1085.741973 792.39615 
L 1086.786268 789.881539 
L 1087.830563 789.652025 
L 1088.874858 793.507473 
L 1089.919153 787.576139 
L 1090.963449 793.061212 
L 1092.007744 779.795005 
L 1093.052039 792.607718 
L 1094.096334 787.642297 
L 1095.140629 791.110738 
L 1096.184924 793.819231 
L 1097.229219 780.874558 
L 1098.273515 793.923093 
L 1099.31781 790.561847 
L 1100.362105 792.880207 
L 1101.4064 788.085383 
L 1102.450695 792.295547 
L 1103.49499 787.070581 
L 1104.539285 793.566242 
L 1105.58358 782.45616 
L 1106.627876 796.649976 
L 1107.672171 788.242663 
L 1108.716466 787.499997 
L 1109.760761 790.565521 
L 1110.805056 792.960219 
L 1111.849351 782.653311 
L 1112.893646 789.748982 
L 1113.937942 795.955935 
L 1114.982237 785.414413 
L 1116.026532 792.617371 
L 1117.070827 787.384517 
L 1118.115122 785.73705 
L 1119.159417 796.720148 
L 1120.203712 794.257959 
L 1121.248007 787.837096 
L 1122.292303 793.05848 
L 1123.336598 791.882286 
L 1124.380893 783.314265 
L 1125.425188 788.686941 
L 1126.469483 793.109787 
L 1127.513778 793.659875 
L 1128.558073 790.764723 
L 1129.602369 786.832662 
L 1130.646664 788.191516 
L 1131.690959 787.287084 
L 1132.735254 791.538997 
L 1133.779549 786.653149 
L 1134.823844 794.778023 
L 1135.868139 792.766027 
L 1136.912434 790.353623 
L 1137.95673 793.878568 
L 1139.001025 779.773946 
L 1140.04532 792.028369 
L 1141.089615 789.279575 
L 1142.13391 790.968768 
L 1143.178205 787.452329 
L 1144.2225 794.99596 
L 1145.266796 786.130571 
L 1146.311091 790.509434 
L 1147.355386 787.600195 
L 1148.399681 798.231109 
L 1149.443976 792.428585 
L 1150.488271 783.880819 
L 1151.532566 795.495077 
L 1152.576861 796.11267 
L 1153.621157 794.61555 
L 1154.665452 780.103559 
L 1155.709747 796.261233 
L 1156.754042 788.144011 
L 1157.798337 792.504933 
L 1158.842632 782.365718 
L 1159.886927 794.829195 
L 1160.931223 796.777888 
L 1163.019813 791.377371 
L 1164.064108 792.001142 
L 1165.108403 790.177041 
L 1166.152698 796.879383 
L 1167.196993 790.20888 
L 1168.241288 788.729397 
L 1169.285584 789.261565 
L 1170.329879 794.724 
L 1171.374174 793.66752 
L 1172.418469 793.583202 
L 1173.462764 791.179237 
L 1174.507059 793.111264 
L 1175.551354 791.720514 
L 1176.59565 786.308733 
L 1177.639945 794.39303 
L 1178.68424 791.667292 
L 1179.728535 797.656258 
L 1180.77283 789.63053 
L 1181.817125 788.763915 
L 1182.86142 793.400375 
L 1183.905715 792.767662 
L 1184.950011 787.396301 
L 1185.994306 792.061077 
L 1187.038601 787.850657 
L 1188.082896 794.043998 
L 1189.127191 796.155172 
L 1190.171486 795.311164 
L 1191.215781 790.771659 
L 1192.260077 795.127554 
L 1193.304372 783.514065 
L 1194.348667 796.355292 
L 1195.392962 794.948206 
L 1196.437257 792.757313 
L 1197.481552 791.280287 
L 1198.525847 798.472564 
L 1199.570142 782.453505 
L 1200.614438 798.981576 
L 1201.658733 784.277333 
L 1202.703028 790.595995 
L 1203.747323 788.317941 
L 1204.791618 794.989616 
L 1205.835913 797.94507 
L 1206.880208 789.992046 
L 1207.924504 794.178249 
L 1208.968799 796.432695 
L 1210.013094 791.312782 
L 1211.057389 785.149227 
L 1212.101684 788.88699 
L 1213.145979 795.629564 
L 1214.190274 787.208928 
L 1215.23457 791.842186 
L 1216.278865 798.348311 
L 1218.367455 784.318279 
L 1219.41175 799.448475 
L 1220.456045 792.698354 
L 1221.50034 790.749647 
L 1222.544635 797.788495 
L 1223.588931 786.143908 
L 1224.633226 798.358311 
L 1225.677521 795.218662 
L 1226.721816 789.00841 
L 1227.766111 787.846651 
L 1228.810406 789.967909 
L 1229.854701 795.164741 
L 1230.898997 791.873435 
L 1231.943292 792.533306 
L 1232.987587 791.326665 
L 1234.031882 797.938268 
L 1235.076177 798.986366 
L 1236.120472 790.354339 
L 1237.164767 793.367998 
L 1238.209062 794.165459 
L 1239.253358 793.188179 
L 1241.341948 789.698155 
L 1242.386243 793.153562 
L 1243.430538 789.833473 
L 1244.474833 791.566794 
L 1245.519128 797.564437 
L 1246.563424 794.425084 
L 1247.607719 794.207198 
L 1248.652014 792.114462 
L 1249.696309 788.271225 
L 1250.740604 795.372606 
L 1251.784899 796.178558 
L 1252.829194 786.347973 
L 1253.873489 793.284039 
L 1254.917785 795.194197 
L 1255.96208 788.223982 
L 1257.006375 794.07782 
L 1258.05067 798.215726 
L 1259.094965 789.875071 
L 1260.13926 794.142512 
L 1261.183555 788.424646 
L 1262.227851 796.243246 
L 1263.272146 794.253165 
L 1265.360736 793.074958 
L 1266.405031 790.867291 
L 1267.449326 799.275966 
L 1268.493621 790.394675 
L 1269.537916 792.875788 
L 1270.582212 794.926302 
L 1271.626507 795.076956 
L 1272.670802 788.644904 
L 1273.715097 798.274524 
L 1274.759392 793.393809 
L 1275.803687 789.478294 
L 1276.847982 797.682081 
L 1277.892278 796.206619 
L 1278.936573 790.527009 
L 1279.980868 800.745161 
L 1281.025163 793.222539 
L 1282.069458 792.27096 
L 1282.069458 792.27096 
" style="fill:none;stroke:#1f77b4;stroke-linecap:square;stroke-width:1.5;"/>
   </g>
   <g id="line2d_32">
    <path clip-path="url(#p999adf8dc7)" d="M 238.818619 507.841948 
L 239.862915 562.696086 
L 240.90721 586.99724 
L 241.951505 574.950379 
L 242.9958 595.286254 
L 244.040095 605.981422 
L 245.08439 636.909064 
L 246.128685 635.636865 
L 247.17298 606.717296 
L 248.217276 621.413258 
L 249.261571 630.512578 
L 250.305866 607.400253 
L 251.350161 652.03836 
L 252.394456 631.427625 
L 253.438751 599.624985 
L 254.483046 646.06544 
L 255.527342 630.391919 
L 256.571637 657.770238 
L 257.615932 647.92524 
L 258.660227 643.501286 
L 259.704522 646.806151 
L 260.748817 652.462768 
L 261.793112 648.90828 
L 262.837407 648.860056 
L 263.881703 652.33053 
L 264.925998 651.84294 
L 265.970293 645.81997 
L 267.014588 648.926431 
L 268.058883 669.010486 
L 269.103178 653.47082 
L 270.147473 666.556699 
L 271.191769 634.051373 
L 272.236064 638.094621 
L 273.280359 641.665487 
L 274.324654 647.951856 
L 275.368949 666.737674 
L 277.457539 632.719606 
L 278.501834 664.287436 
L 279.54613 665.606677 
L 280.590425 630.144188 
L 281.63472 629.478331 
L 282.679015 654.587373 
L 283.72331 651.219879 
L 284.767605 659.8784 
L 285.8119 659.238068 
L 286.856196 642.925069 
L 287.900491 629.335026 
L 288.944786 652.262972 
L 289.989081 652.384616 
L 291.033376 660.817881 
L 292.077671 652.704887 
L 293.121966 647.132626 
L 294.166262 658.686981 
L 295.210557 641.928452 
L 296.254852 632.687759 
L 297.299147 613.258257 
L 298.343442 654.734858 
L 299.387737 639.369489 
L 300.432032 659.29059 
L 301.476327 659.985599 
L 302.520623 661.756574 
L 303.564918 654.481054 
L 304.609213 661.292972 
L 305.653508 649.83931 
L 306.697803 642.723655 
L 307.742098 633.684429 
L 308.786393 646.273715 
L 309.830689 642.495824 
L 310.874984 657.867015 
L 311.919279 648.289188 
L 312.963574 621.321003 
L 314.007869 637.740715 
L 315.052164 670.277074 
L 316.096459 637.592074 
L 317.140754 644.315154 
L 318.18505 643.012671 
L 319.229345 635.587905 
L 321.317935 657.351481 
L 322.36223 629.86708 
L 323.406525 645.817932 
L 324.45082 647.00855 
L 325.495116 613.869397 
L 326.539411 613.45783 
L 327.583706 655.083729 
L 328.628001 658.205411 
L 329.672296 659.908157 
L 330.716591 641.337527 
L 331.760886 638.613638 
L 332.805181 644.024127 
L 333.849477 637.374021 
L 334.893772 644.697292 
L 335.938067 657.222726 
L 336.982362 632.260656 
L 338.026657 650.262811 
L 339.070952 651.838051 
L 340.115247 635.246801 
L 341.159543 645.182358 
L 342.203838 636.295453 
L 343.248133 649.2584 
L 344.292428 652.933705 
L 345.336723 647.018486 
L 346.381018 573.932457 
L 347.425313 579.820494 
L 348.469608 629.902345 
L 349.513904 641.81681 
L 350.558199 641.783806 
L 351.602494 653.61795 
L 352.646789 613.687634 
L 353.691084 642.490829 
L 354.735379 629.351521 
L 355.779674 648.084344 
L 356.82397 644.706992 
L 357.868265 653.429115 
L 358.91256 605.575166 
L 359.956855 635.850988 
L 361.00115 637.177287 
L 362.045445 625.167386 
L 364.134035 646.953412 
L 365.178331 645.861451 
L 366.222626 649.652657 
L 367.266921 620.963917 
L 368.311216 647.840174 
L 369.355511 618.356046 
L 370.399806 643.779879 
L 371.444101 649.375615 
L 372.488397 599.004894 
L 373.532692 632.296539 
L 374.576987 610.808071 
L 375.621282 644.371251 
L 376.665577 624.207821 
L 377.709872 655.916445 
L 378.754167 634.874152 
L 379.798462 645.898201 
L 380.842758 625.722692 
L 381.887053 572.311083 
L 382.931348 606.104368 
L 383.975643 631.115819 
L 385.019938 631.145826 
L 386.064233 628.630474 
L 387.108528 627.104207 
L 388.152824 633.938022 
L 389.197119 630.006087 
L 390.241414 640.124421 
L 391.285709 603.484274 
L 392.330004 654.192406 
L 393.374299 618.680616 
L 394.418594 622.220751 
L 395.462889 640.437949 
L 396.507185 631.038179 
L 397.55148 625.328934 
L 398.595775 641.037523 
L 399.64007 629.349562 
L 400.684365 595.975283 
L 401.72866 625.212337 
L 402.772955 630.914813 
L 403.817251 599.835572 
L 404.861546 617.516062 
L 405.905841 633.056162 
L 406.950136 623.276817 
L 407.994431 623.758164 
L 409.038726 648.685837 
L 410.083021 601.834287 
L 411.127316 615.056216 
L 412.171612 641.023315 
L 414.260202 629.22157 
L 415.304497 644.680928 
L 416.348792 613.436078 
L 417.393087 617.527432 
L 418.437382 651.36417 
L 419.481678 621.991868 
L 420.525973 614.110097 
L 421.570268 633.591924 
L 422.614563 583.003596 
L 423.658858 630.329316 
L 424.703153 640.429485 
L 425.747448 636.630669 
L 426.791743 651.093581 
L 427.836039 630.102838 
L 428.880334 621.173308 
L 429.924629 636.028046 
L 430.968924 638.396202 
L 432.013219 575.52247 
L 433.057514 656.042795 
L 435.146105 637.578602 
L 436.1904 632.712837 
L 437.234695 628.72035 
L 438.27899 584.518822 
L 439.323285 636.425273 
L 440.36758 621.671071 
L 441.411875 640.357602 
L 442.456171 645.824833 
L 443.500466 623.164925 
L 444.544761 648.952968 
L 445.589056 635.344852 
L 446.633351 609.148226 
L 447.677646 647.964303 
L 448.721941 620.118977 
L 449.766236 631.958497 
L 450.810532 584.710404 
L 451.854827 630.184118 
L 452.899122 605.674466 
L 453.943417 629.101634 
L 454.987712 638.155897 
L 456.032007 636.836577 
L 457.076302 621.262448 
L 458.120598 648.976429 
L 459.164893 630.37503 
L 460.209188 623.290631 
L 461.253483 613.391021 
L 462.297778 636.77078 
L 463.342073 632.89606 
L 464.386368 631.817913 
L 465.430663 645.643161 
L 466.474959 602.536539 
L 467.519254 649.886456 
L 468.563549 601.060744 
L 469.607844 651.819452 
L 470.652139 595.343836 
L 471.696434 582.778025 
L 472.740729 628.876746 
L 473.785025 603.429334 
L 474.82932 641.862523 
L 475.873615 604.78589 
L 476.91791 626.948205 
L 477.962205 612.312388 
L 479.0065 639.010313 
L 480.050795 639.561373 
L 481.09509 621.915122 
L 482.139386 637.322695 
L 483.183681 612.5832 
L 484.227976 609.986633 
L 485.272271 613.133064 
L 486.316566 615.17878 
L 487.360861 618.895817 
L 488.405156 636.862825 
L 489.449452 641.574756 
L 490.493747 628.722979 
L 491.538042 629.765624 
L 492.582337 637.877094 
L 493.626632 654.082683 
L 494.670927 614.842763 
L 495.715222 631.031818 
L 497.803813 618.611414 
L 498.848108 609.350546 
L 499.892403 626.339589 
L 500.936698 622.69847 
L 501.980993 623.200755 
L 503.025288 631.683085 
L 504.069583 626.896971 
L 505.113879 640.846283 
L 506.158174 646.462116 
L 507.202469 638.295509 
L 508.246764 594.654833 
L 509.291059 587.805995 
L 510.335354 636.492056 
L 511.379649 620.43382 
L 512.423944 607.581004 
L 513.46824 630.134869 
L 514.512535 627.360837 
L 515.55683 627.977458 
L 516.601125 578.085297 
L 517.64542 607.21586 
L 519.73401 634.720161 
L 520.778306 613.82856 
L 521.822601 640.564181 
L 522.866896 633.182999 
L 523.911191 642.875228 
L 524.955486 596.648054 
L 525.999781 628.605027 
L 527.044076 607.885674 
L 528.088371 633.286636 
L 529.132667 587.270181 
L 530.176962 614.669162 
L 531.221257 635.254884 
L 532.265552 636.997258 
L 533.309847 623.240383 
L 534.354142 617.169438 
L 535.398437 629.969995 
L 536.442733 639.351311 
L 537.487028 515.9408 
L 538.531323 623.765997 
L 539.575618 585.315353 
L 540.619913 596.525739 
L 541.664208 620.388093 
L 542.708503 600.663727 
L 543.752798 626.211412 
L 544.797094 623.769086 
L 545.841389 633.690632 
L 546.885684 636.572745 
L 547.929979 640.662272 
L 548.974274 632.875043 
L 550.018569 610.22845 
L 551.062864 628.729984 
L 552.10716 639.825219 
L 553.151455 628.144842 
L 554.19575 631.09655 
L 555.240045 638.255105 
L 556.28434 644.480724 
L 557.328635 631.903636 
L 558.37293 629.985426 
L 559.417225 555.894223 
L 560.461521 637.098477 
L 561.505816 621.068159 
L 562.550111 631.548534 
L 563.594406 623.343652 
L 564.638701 616.994089 
L 565.682996 628.088771 
L 566.727291 629.995257 
L 567.771587 602.108122 
L 568.815882 626.266694 
L 569.860177 622.528799 
L 570.904472 634.530906 
L 571.948767 598.457632 
L 572.993062 590.04909 
L 574.037357 616.004753 
L 575.081652 633.575994 
L 576.125948 590.536929 
L 577.170243 624.130549 
L 578.214538 620.047975 
L 579.258833 602.100617 
L 580.303128 603.043555 
L 581.347423 600.827536 
L 582.391718 631.724593 
L 583.436014 614.324443 
L 584.480309 619.196767 
L 585.524604 622.384547 
L 586.568899 618.326223 
L 587.613194 584.97743 
L 588.657489 635.669934 
L 589.701784 557.896946 
L 590.74608 606.251485 
L 591.790375 595.773673 
L 592.83467 607.088367 
L 593.878965 626.371028 
L 594.92326 625.465234 
L 595.967555 616.514306 
L 597.01185 620.385057 
L 598.056145 616.697831 
L 599.100441 595.210297 
L 600.144736 634.601579 
L 601.189031 620.702634 
L 602.233326 609.324509 
L 603.277621 629.974122 
L 604.321916 574.511487 
L 605.366211 605.876996 
L 606.410507 575.372816 
L 607.454802 619.643782 
L 608.499097 607.615348 
L 609.543392 626.805097 
L 610.587687 616.233045 
L 611.631982 609.885795 
L 612.676277 594.270171 
L 613.720572 614.506838 
L 614.764868 601.068025 
L 615.809163 634.37911 
L 616.853458 595.709164 
L 617.897753 629.887519 
L 618.942048 605.111274 
L 619.986343 622.647223 
L 621.030638 611.427991 
L 622.074934 627.476422 
L 623.119229 613.864232 
L 624.163524 613.361974 
L 625.207819 619.700957 
L 626.252114 623.451325 
L 627.296409 618.651778 
L 628.340704 622.274128 
L 629.384999 624.270529 
L 630.429295 623.59534 
L 631.47359 610.476497 
L 632.517885 603.261279 
L 633.56218 624.514291 
L 634.606475 613.889284 
L 635.65077 625.29735 
L 636.695065 639.882709 
L 637.739361 619.90078 
L 638.783656 602.161051 
L 639.827951 618.511956 
L 640.872246 631.260675 
L 641.916541 585.636742 
L 642.960836 619.543627 
L 644.005131 628.919082 
L 645.049426 603.332347 
L 647.138017 594.080193 
L 648.182312 611.250828 
L 649.226607 630.25746 
L 650.270902 604.728807 
L 651.315197 616.303219 
L 652.359492 615.695221 
L 653.403788 616.770739 
L 654.448083 625.570554 
L 655.492378 582.647982 
L 657.580968 632.90643 
L 658.625263 637.835245 
L 659.669558 628.024354 
L 660.713853 616.301287 
L 661.758149 610.563113 
L 662.802444 625.425961 
L 663.846739 635.582305 
L 664.891034 621.548362 
L 665.935329 599.40057 
L 666.979624 621.488624 
L 668.023919 626.842767 
L 669.068215 605.978702 
L 670.11251 602.772743 
L 671.156805 632.5408 
L 672.2011 615.222628 
L 673.245395 626.892686 
L 674.28969 594.253269 
L 675.333985 566.32686 
L 676.37828 617.635039 
L 677.422576 601.526371 
L 678.466871 628.690303 
L 679.511166 593.100729 
L 680.555461 618.618144 
L 681.599756 639.15346 
L 682.644051 594.133898 
L 683.688346 629.040805 
L 684.732642 606.624515 
L 685.776937 619.619361 
L 686.821232 619.612395 
L 687.865527 601.723026 
L 688.909822 579.09118 
L 689.954117 582.474354 
L 690.998412 597.548946 
L 692.042707 630.510067 
L 693.087003 627.354488 
L 694.131298 625.50201 
L 695.175593 608.835158 
L 696.219888 610.335754 
L 697.264183 601.996479 
L 698.308478 574.322455 
L 699.352773 633.616607 
L 700.397069 621.494644 
L 701.441364 625.602795 
L 703.529954 605.814603 
L 704.574249 616.05834 
L 705.618544 630.179505 
L 706.662839 590.731324 
L 707.707134 608.757334 
L 708.75143 609.228179 
L 709.795725 608.556959 
L 710.84002 617.544124 
L 711.884315 612.152141 
L 712.92861 598.903385 
L 713.972905 594.279609 
L 715.0172 614.038122 
L 716.061496 588.963162 
L 717.105791 624.786404 
L 718.150086 596.078974 
L 719.194381 604.720737 
L 720.238676 590.308834 
L 721.282971 590.604961 
L 722.327266 613.687857 
L 723.371561 592.086749 
L 724.415857 615.712978 
L 725.460152 567.643801 
L 726.504447 600.033818 
L 727.548742 627.780251 
L 728.593037 606.400639 
L 729.637332 588.597926 
L 730.681627 630.765356 
L 731.725923 628.837341 
L 732.770218 605.941768 
L 733.814513 587.918978 
L 734.858808 619.032734 
L 735.903103 597.984303 
L 736.947398 624.116933 
L 737.991693 599.58491 
L 739.035988 592.035226 
L 740.080284 596.943365 
L 741.124579 542.518276 
L 742.168874 596.14414 
L 743.213169 621.347856 
L 744.257464 619.006788 
L 745.301759 604.472598 
L 746.346054 606.629378 
L 747.39035 622.081021 
L 748.434645 617.983661 
L 749.47894 612.635748 
L 750.523235 621.556301 
L 751.56753 593.528633 
L 753.65612 616.089596 
L 754.700416 615.690686 
L 755.744711 614.672697 
L 756.789006 615.915363 
L 757.833301 585.342534 
L 758.877596 628.81806 
L 759.921891 591.611238 
L 760.966186 583.113477 
L 762.010481 624.470457 
L 763.054777 629.836403 
L 764.099072 606.135243 
L 765.143367 618.97803 
L 766.187662 580.435959 
L 767.231957 630.047621 
L 768.276252 615.364605 
L 769.320547 609.717017 
L 770.364843 605.859528 
L 771.409138 597.639295 
L 772.453433 630.671143 
L 773.497728 620.304434 
L 775.586318 594.44301 
L 776.630613 612.452644 
L 777.674908 612.78322 
L 778.719204 594.331421 
L 779.763499 611.745516 
L 780.807794 594.982426 
L 781.852089 585.83571 
L 782.896384 606.168851 
L 783.940679 594.103773 
L 784.984974 621.760803 
L 786.02927 616.428189 
L 787.073565 591.51592 
L 788.11786 602.05715 
L 789.162155 579.359336 
L 790.20645 605.839116 
L 791.250745 615.291106 
L 792.29504 605.837473 
L 793.339335 629.463833 
L 794.383631 616.903858 
L 795.427926 626.281283 
L 796.472221 615.868243 
L 797.516516 600.058935 
L 798.560811 600.313094 
L 799.605106 622.249549 
L 800.649401 604.821548 
L 801.693697 618.869569 
L 802.737992 615.462617 
L 803.782287 586.016172 
L 804.826582 607.394693 
L 805.870877 592.75789 
L 806.915172 619.005106 
L 807.959467 608.093856 
L 810.048058 616.063663 
L 811.092353 604.912568 
L 812.136648 622.436386 
L 813.180943 617.895651 
L 814.225238 598.596192 
L 815.269533 576.878605 
L 816.313828 605.965834 
L 817.358124 630.879378 
L 818.402419 616.531643 
L 819.446714 598.82384 
L 820.491009 610.382388 
L 821.535304 587.364658 
L 822.579599 599.915985 
L 823.623894 598.012627 
L 824.668189 609.832616 
L 825.712485 603.20927 
L 826.75678 615.741775 
L 827.801075 562.313395 
L 828.84537 586.141352 
L 829.889665 602.186103 
L 830.93396 578.621321 
L 831.978255 614.850544 
L 833.022551 570.376128 
L 834.066846 594.67263 
L 835.111141 612.145661 
L 836.155436 612.13997 
L 837.199731 593.193549 
L 838.244026 619.789282 
L 839.288321 590.102821 
L 840.332616 594.718869 
L 841.376912 627.124488 
L 842.421207 588.607547 
L 843.465502 580.306783 
L 844.509797 590.642052 
L 845.554092 606.359749 
L 846.598387 589.759693 
L 847.642682 595.974035 
L 848.686978 595.44035 
L 849.731273 610.722901 
L 850.775568 603.777023 
L 851.819863 609.217414 
L 852.864158 593.985112 
L 853.908453 602.173196 
L 854.952748 615.50774 
L 855.997043 592.665937 
L 857.041339 601.397589 
L 858.085634 612.131032 
L 859.129929 593.34591 
L 860.174224 607.372664 
L 861.218519 591.625959 
L 862.262814 591.512056 
L 863.307109 598.940713 
L 864.351405 609.808931 
L 865.3957 585.176819 
L 866.439995 609.651772 
L 867.48429 610.302527 
L 869.57288 616.34039 
L 871.66147 597.579032 
L 872.705766 618.827312 
L 873.750061 607.077786 
L 874.794356 603.103897 
L 875.838651 603.967303 
L 876.882946 603.386735 
L 877.927241 613.214213 
L 878.971536 604.081377 
L 880.015832 612.712599 
L 881.060127 595.595498 
L 882.104422 612.552483 
L 883.148717 598.651671 
L 884.193012 624.939475 
L 885.237307 585.888495 
L 886.281602 595.710584 
L 887.325897 602.512091 
L 888.370193 600.754129 
L 889.414488 604.372351 
L 890.458783 598.854215 
L 891.503078 604.777649 
L 892.547373 611.63616 
L 893.591668 603.363721 
L 894.635963 608.450404 
L 895.680259 601.932246 
L 896.724554 593.195968 
L 897.768849 592.621827 
L 898.813144 590.558695 
L 899.857439 611.552475 
L 900.901734 610.156239 
L 901.946029 566.847085 
L 902.990325 605.915008 
L 904.03462 609.467117 
L 905.078915 597.117019 
L 906.12321 614.375796 
L 907.167505 588.012955 
L 908.2118 581.271553 
L 909.256095 584.424635 
L 910.30039 605.780049 
L 911.344686 590.390167 
L 912.388981 609.93047 
L 913.433276 608.081895 
L 914.477571 586.90534 
L 915.521866 614.561476 
L 916.566161 601.386851 
L 917.610456 602.597841 
L 918.654752 605.782046 
L 919.699047 555.922087 
L 920.743342 587.049131 
L 921.787637 596.924938 
L 922.831932 595.834121 
L 923.876227 596.268939 
L 924.920522 614.717728 
L 925.964817 620.220959 
L 927.009113 607.486514 
L 928.053408 605.188295 
L 929.097703 619.080879 
L 930.141998 606.17098 
L 931.186293 601.859996 
L 932.230588 608.786053 
L 933.274883 601.647292 
L 934.319179 579.902563 
L 935.363474 601.186686 
L 936.407769 611.723303 
L 937.452064 588.435103 
L 938.496359 604.629414 
L 939.540654 581.576985 
L 940.584949 592.030205 
L 941.629244 613.557236 
L 942.67354 588.552922 
L 943.717835 570.334121 
L 944.76213 601.976698 
L 945.806425 592.969976 
L 946.85072 614.658713 
L 947.895015 562.911457 
L 948.93931 588.277878 
L 949.983606 572.543121 
L 951.027901 610.395637 
L 952.072196 567.63071 
L 953.116491 589.134739 
L 954.160786 599.042866 
L 955.205081 568.843001 
L 956.249376 579.304238 
L 957.293671 598.113268 
L 958.337967 607.53044 
L 959.382262 586.857891 
L 960.426557 579.911475 
L 961.470852 615.743734 
L 962.515147 617.531559 
L 963.559442 580.231444 
L 964.603737 605.142792 
L 965.648033 574.922646 
L 966.692328 597.9702 
L 967.736623 566.505903 
L 968.780918 611.204983 
L 969.825213 584.145726 
L 970.869508 590.944961 
L 971.913803 583.939503 
L 972.958098 592.647536 
L 974.002394 608.732979 
L 975.046689 600.114559 
L 976.090984 585.833423 
L 977.135279 604.237484 
L 978.179574 599.872046 
L 979.223869 611.885929 
L 980.268164 596.707739 
L 981.31246 593.590908 
L 982.356755 609.8831 
L 983.40105 560.03108 
L 984.445345 600.982841 
L 985.48964 609.293477 
L 986.533935 595.192882 
L 987.57823 602.165743 
L 988.622525 611.279376 
L 989.666821 608.493988 
L 990.711116 595.576282 
L 991.755411 608.253472 
L 992.799706 594.796548 
L 993.844001 606.214144 
L 994.888296 607.959397 
L 995.932591 577.17778 
L 996.976887 581.85542 
L 998.021182 583.772526 
L 999.065477 592.387923 
L 1000.109772 579.314885 
L 1001.154067 594.990627 
L 1002.198362 601.275669 
L 1003.242657 598.898601 
L 1004.286952 597.714871 
L 1005.331248 612.109779 
L 1006.375543 600.62381 
L 1007.419838 578.713431 
L 1008.464133 612.843207 
L 1009.508428 593.762879 
L 1010.552723 590.757979 
L 1011.597018 593.399878 
L 1012.641314 601.896325 
L 1013.685609 601.548846 
L 1014.729904 597.098487 
L 1015.774199 613.937363 
L 1016.818494 604.062319 
L 1017.862789 586.845037 
L 1018.907084 601.991748 
L 1019.951379 605.199284 
L 1020.995675 585.561534 
L 1022.03997 593.788273 
L 1023.084265 606.504066 
L 1024.12856 609.365215 
L 1025.172855 560.176606 
L 1026.21715 584.677965 
L 1027.261445 605.107501 
L 1028.305741 608.492398 
L 1029.350036 570.589765 
L 1030.394331 611.648621 
L 1031.438626 589.301742 
L 1032.482921 573.667454 
L 1033.527216 593.943815 
L 1034.571511 584.96794 
L 1035.615806 597.30061 
L 1036.660102 600.39816 
L 1037.704397 582.479086 
L 1038.748692 605.40067 
L 1039.792987 567.172627 
L 1040.837282 592.516914 
L 1041.881577 578.250723 
L 1042.925872 592.959066 
L 1043.970168 572.574061 
L 1045.014463 596.24206 
L 1046.058758 591.297368 
L 1047.103053 605.349857 
L 1048.147348 578.22504 
L 1049.191643 557.607812 
L 1050.235938 580.098929 
L 1051.280234 583.113083 
L 1052.324529 593.318939 
L 1053.368824 618.095631 
L 1054.413119 577.599166 
L 1056.501709 608.629709 
L 1057.546004 605.895069 
L 1058.590299 604.318278 
L 1059.634595 596.984571 
L 1060.67889 592.991374 
L 1061.723185 608.800025 
L 1062.76748 557.120761 
L 1063.811775 611.140316 
L 1064.85607 598.348132 
L 1065.900365 604.60222 
L 1066.944661 587.511551 
L 1067.988956 591.88736 
L 1069.033251 581.33735 
L 1070.077546 593.034853 
L 1071.121841 572.938666 
L 1072.166136 582.474065 
L 1073.210431 616.809565 
L 1074.254726 579.624549 
L 1075.299022 584.835216 
L 1076.343317 594.751781 
L 1077.387612 570.883657 
L 1078.431907 600.130529 
L 1079.476202 580.031213 
L 1080.520497 575.229156 
L 1081.564792 600.052337 
L 1082.609088 595.364656 
L 1083.653383 588.177724 
L 1084.697678 586.393658 
L 1085.741973 596.177288 
L 1086.786268 601.989185 
L 1087.830563 586.837913 
L 1089.919153 600.430743 
L 1090.963449 580.91536 
L 1092.007744 590.633036 
L 1093.052039 594.618793 
L 1094.096334 576.898031 
L 1095.140629 576.783629 
L 1096.184924 605.447094 
L 1097.229219 604.851463 
L 1098.273515 617.31457 
L 1099.31781 601.036928 
L 1100.362105 606.724012 
L 1101.4064 595.132368 
L 1102.450695 567.435001 
L 1103.49499 587.232038 
L 1104.539285 610.004495 
L 1105.58358 572.669983 
L 1106.627876 604.733696 
L 1107.672171 580.733268 
L 1108.716466 569.58283 
L 1109.760761 585.378916 
L 1110.805056 584.566376 
L 1111.849351 576.321971 
L 1112.893646 602.23806 
L 1113.937942 579.747363 
L 1114.982237 611.392714 
L 1116.026532 568.540329 
L 1117.070827 601.071127 
L 1118.115122 577.731049 
L 1119.159417 604.94937 
L 1120.203712 600.713936 
L 1121.248007 599.6207 
L 1122.292303 593.132668 
L 1123.336598 590.377681 
L 1124.380893 612.775386 
L 1125.425188 594.488198 
L 1126.469483 590.946932 
L 1127.513778 581.968008 
L 1128.558073 562.961193 
L 1129.602369 592.223496 
L 1130.646664 579.299953 
L 1131.690959 545.948715 
L 1132.735254 604.571096 
L 1133.779549 606.935323 
L 1134.823844 576.712837 
L 1135.868139 600.575428 
L 1136.912434 604.160752 
L 1137.95673 600.5039 
L 1139.001025 579.59027 
L 1140.04532 592.878943 
L 1141.089615 595.376419 
L 1142.13391 542.857856 
L 1143.178205 589.680621 
L 1144.2225 594.160737 
L 1145.266796 594.1998 
L 1146.311091 597.515495 
L 1147.355386 582.678869 
L 1148.399681 595.706141 
L 1149.443976 588.964765 
L 1150.488271 585.379783 
L 1151.532566 587.968135 
L 1152.576861 594.221987 
L 1153.621157 606.260633 
L 1154.665452 584.363306 
L 1155.709747 584.614639 
L 1156.754042 594.165206 
L 1157.798337 612.476289 
L 1158.842632 591.522045 
L 1159.886927 597.159776 
L 1160.931223 573.99644 
L 1161.975518 592.322914 
L 1163.019813 576.497623 
L 1164.064108 607.41893 
L 1165.108403 603.805426 
L 1166.152698 580.896381 
L 1167.196993 579.842418 
L 1168.241288 588.889662 
L 1169.285584 581.49928 
L 1170.329879 572.170998 
L 1171.374174 590.328734 
L 1172.418469 579.36441 
L 1173.462764 540.789151 
L 1174.507059 569.058399 
L 1175.551354 576.457482 
L 1176.59565 571.69922 
L 1177.639945 569.054692 
L 1178.68424 606.027885 
L 1179.728535 598.043252 
L 1180.77283 581.106679 
L 1181.817125 570.056001 
L 1182.86142 577.263608 
L 1183.905715 575.529068 
L 1184.950011 579.722364 
L 1185.994306 576.228284 
L 1187.038601 593.556655 
L 1188.082896 599.043917 
L 1189.127191 585.425181 
L 1190.171486 561.454274 
L 1191.215781 593.011404 
L 1192.260077 565.702694 
L 1193.304372 578.206087 
L 1194.348667 565.688 
L 1195.392962 590.710084 
L 1196.437257 579.966047 
L 1198.525847 585.974796 
L 1199.570142 590.535851 
L 1200.614438 575.178553 
L 1201.658733 590.070672 
L 1202.703028 595.11147 
L 1203.747323 585.231497 
L 1204.791618 582.756128 
L 1205.835913 576.488107 
L 1206.880208 544.154476 
L 1207.924504 577.288503 
L 1208.968799 553.928091 
L 1210.013094 578.139816 
L 1211.057389 574.463854 
L 1212.101684 582.91719 
L 1213.145979 567.559786 
L 1214.190274 578.20309 
L 1215.23457 585.290617 
L 1216.278865 587.930728 
L 1217.32316 586.785628 
L 1218.367455 585.915413 
L 1219.41175 561.141219 
L 1220.456045 608.323305 
L 1221.50034 585.721229 
L 1222.544635 548.095546 
L 1223.588931 604.770801 
L 1224.633226 575.323659 
L 1225.677521 573.731254 
L 1226.721816 580.16491 
L 1227.766111 594.317699 
L 1228.810406 573.673001 
L 1229.854701 557.386841 
L 1230.898997 605.934526 
L 1231.943292 569.965967 
L 1232.987587 570.489768 
L 1234.031882 575.227237 
L 1235.076177 578.54911 
L 1236.120472 567.876864 
L 1237.164767 593.88388 
L 1238.209062 605.920055 
L 1239.253358 544.984655 
L 1241.341948 577.55432 
L 1242.386243 580.179237 
L 1243.430538 579.228689 
L 1244.474833 600.992804 
L 1245.519128 569.923145 
L 1246.563424 579.614087 
L 1247.607719 547.379848 
L 1248.652014 576.736443 
L 1249.696309 568.122545 
L 1250.740604 568.414255 
L 1251.784899 558.519981 
L 1252.829194 591.871956 
L 1253.873489 555.34353 
L 1254.917785 552.788353 
L 1255.96208 583.97875 
L 1257.006375 576.417447 
L 1258.05067 574.278056 
L 1259.094965 563.230506 
L 1260.13926 554.764658 
L 1261.183555 565.283386 
L 1262.227851 582.786016 
L 1263.272146 571.572673 
L 1264.316441 544.524575 
L 1265.360736 580.390114 
L 1266.405031 561.873872 
L 1267.449326 584.822677 
L 1268.493621 587.083541 
L 1269.537916 557.934195 
L 1270.582212 564.841996 
L 1271.626507 542.425877 
L 1272.670802 535.834181 
L 1273.715097 574.139574 
L 1274.759392 588.423983 
L 1275.803687 551.216136 
L 1276.847982 580.394451 
L 1277.892278 568.910664 
L 1278.936573 573.320094 
L 1279.980868 571.163827 
L 1281.025163 555.327416 
L 1282.069458 547.899048 
L 1282.069458 547.899048 
" style="fill:none;stroke:#ff7f0e;stroke-linecap:square;stroke-width:1.5;"/>
   </g>
   <g id="patch_3">
    <path d="M 186.656077 815.631296 
L 186.656077 109.9872 
" style="fill:none;stroke:#000000;stroke-linecap:square;stroke-linejoin:miter;stroke-width:0.8;"/>
   </g>
   <g id="patch_4">
    <path d="M 1334.232 815.631296 
L 1334.232 109.9872 
" style="fill:none;stroke:#000000;stroke-linecap:square;stroke-linejoin:miter;stroke-width:0.8;"/>
   </g>
   <g id="patch_5">
    <path d="M 186.656077 815.631296 
L 1334.232 815.631296 
" style="fill:none;stroke:#000000;stroke-linecap:square;stroke-linejoin:miter;stroke-width:0.8;"/>
   </g>
   <g id="patch_6">
    <path d="M 186.656077 109.9872 
L 1334.232 109.9872 
" style="fill:none;stroke:#000000;stroke-linecap:square;stroke-linejoin:miter;stroke-width:0.8;"/>
   </g>
   <g id="legend_1">
    <g id="patch_7">
     <path d="M 1256.091375 147.621575 
L 1327.232 147.621575 
Q 1329.232 147.621575 1329.232 145.621575 
L 1329.232 116.9872 
Q 1329.232 114.9872 1327.232 114.9872 
L 1256.091375 114.9872 
Q 1254.091375 114.9872 1254.091375 116.9872 
L 1254.091375 145.621575 
Q 1254.091375 147.621575 1256.091375 147.621575 
z
" style="fill:#ffffff;opacity:0.8;stroke:#cccccc;stroke-linejoin:miter;"/>
    </g>
    <g id="line2d_33">
     <path d="M 1258.091375 123.085637 
L 1278.091375 123.085637 
" style="fill:none;stroke:#1f77b4;stroke-linecap:square;stroke-width:1.5;"/>
    </g>
    <g id="line2d_34"/>
    <g id="text_18">
     <!-- loss -->
     <g transform="translate(1286.091375 126.585637)scale(0.1 -0.1)">
      <defs>
       <path d="M 603 4863 
L 1178 4863 
L 1178 0 
L 603 0 
L 603 4863 
z
" id="DejaVuSans-6c" transform="scale(0.015625)"/>
       <path d="M 2834 3397 
L 2834 2853 
Q 2591 2978 2328 3040 
Q 2066 3103 1784 3103 
Q 1356 3103 1142 2972 
Q 928 2841 928 2578 
Q 928 2378 1081 2264 
Q 1234 2150 1697 2047 
L 1894 2003 
Q 2506 1872 2764 1633 
Q 3022 1394 3022 966 
Q 3022 478 2636 193 
Q 2250 -91 1575 -91 
Q 1294 -91 989 -36 
Q 684 19 347 128 
L 347 722 
Q 666 556 975 473 
Q 1284 391 1588 391 
Q 1994 391 2212 530 
Q 2431 669 2431 922 
Q 2431 1156 2273 1281 
Q 2116 1406 1581 1522 
L 1381 1569 
Q 847 1681 609 1914 
Q 372 2147 372 2553 
Q 372 3047 722 3315 
Q 1072 3584 1716 3584 
Q 2034 3584 2315 3537 
Q 2597 3491 2834 3397 
z
" id="DejaVuSans-73" transform="scale(0.015625)"/>
      </defs>
      <use xlink:href="#DejaVuSans-6c"/>
      <use x="27.783203" xlink:href="#DejaVuSans-6f"/>
      <use x="88.964844" xlink:href="#DejaVuSans-73"/>
      <use x="141.064453" xlink:href="#DejaVuSans-73"/>
     </g>
    </g>
    <g id="line2d_35">
     <path d="M 1258.091375 137.763762 
L 1278.091375 137.763762 
" style="fill:none;stroke:#ff7f0e;stroke-linecap:square;stroke-width:1.5;"/>
    </g>
    <g id="line2d_36"/>
    <g id="text_19">
     <!-- val_loss -->
     <g transform="translate(1286.091375 141.263762)scale(0.1 -0.1)">
      <defs>
       <path d="M 191 3500 
L 800 3500 
L 1894 563 
L 2988 3500 
L 3597 3500 
L 2284 0 
L 1503 0 
L 191 3500 
z
" id="DejaVuSans-76" transform="scale(0.015625)"/>
       <path d="M 2194 1759 
Q 1497 1759 1228 1600 
Q 959 1441 959 1056 
Q 959 750 1161 570 
Q 1363 391 1709 391 
Q 2188 391 2477 730 
Q 2766 1069 2766 1631 
L 2766 1759 
L 2194 1759 
z
M 3341 1997 
L 3341 0 
L 2766 0 
L 2766 531 
Q 2569 213 2275 61 
Q 1981 -91 1556 -91 
Q 1019 -91 701 211 
Q 384 513 384 1019 
Q 384 1609 779 1909 
Q 1175 2209 1959 2209 
L 2766 2209 
L 2766 2266 
Q 2766 2663 2505 2880 
Q 2244 3097 1772 3097 
Q 1472 3097 1187 3025 
Q 903 2953 641 2809 
L 641 3341 
Q 956 3463 1253 3523 
Q 1550 3584 1831 3584 
Q 2591 3584 2966 3190 
Q 3341 2797 3341 1997 
z
" id="DejaVuSans-61" transform="scale(0.015625)"/>
       <path d="M 3263 -1063 
L 3263 -1509 
L -63 -1509 
L -63 -1063 
L 3263 -1063 
z
" id="DejaVuSans-5f" transform="scale(0.015625)"/>
      </defs>
      <use xlink:href="#DejaVuSans-76"/>
      <use x="59.179688" xlink:href="#DejaVuSans-61"/>
      <use x="120.458984" xlink:href="#DejaVuSans-6c"/>
      <use x="148.242188" xlink:href="#DejaVuSans-5f"/>
      <use x="198.242188" xlink:href="#DejaVuSans-6c"/>
      <use x="226.025391" xlink:href="#DejaVuSans-6f"/>
      <use x="287.207031" xlink:href="#DejaVuSans-73"/>
      <use x="339.306641" xlink:href="#DejaVuSans-73"/>
     </g>
    </g>
   </g>
  </g>
 </g>
 <defs>
  <clipPath id="p999adf8dc7">
   <rect height="705.644096" width="1147.575923" x="186.656077" y="109.9872"/>
  </clipPath>
 </defs>
</svg>
